<svg width="30" height="30" viewBox="0 0 30 30" fill="none" xmlns="http://www.w3.org/2000/svg">
<rect width="30" height="30" rx="15" fill="#2B2B2B"/>
<path d="M13.8936 15.432V13.576L17.5416 11.24V11.048H11.2056V9.8H18.6936V11.848L15.0456 14.184V14.376H15.6856C16.1122 14.376 16.5229 14.4453 16.9176 14.584C17.3122 14.7227 17.6589 14.9253 17.9576 15.192C18.2669 15.4587 18.5122 15.7893 18.6936 16.184C18.8856 16.568 18.9816 17.016 18.9816 17.528V17.816C18.9816 18.296 18.8856 18.744 18.6936 19.16C18.5016 19.576 18.2349 19.9387 17.8936 20.248C17.5522 20.5467 17.1469 20.7867 16.6776 20.968C16.2189 21.1387 15.7176 21.224 15.1736 21.224C14.5442 21.224 13.9789 21.128 13.4776 20.936C12.9762 20.744 12.5496 20.4827 12.1976 20.152C11.8456 19.8107 11.5736 19.416 11.3816 18.968C11.2002 18.5093 11.1096 18.024 11.1096 17.512V16.648H12.4536V17.416C12.4536 17.8213 12.5176 18.184 12.6456 18.504C12.7842 18.8133 12.9709 19.08 13.2056 19.304C13.4509 19.5173 13.7389 19.6827 14.0696 19.8C14.4002 19.9173 14.7576 19.976 15.1416 19.976C15.4936 19.976 15.8189 19.9173 16.1176 19.8C16.4269 19.6827 16.6936 19.5227 16.9176 19.32C17.1416 19.1067 17.3176 18.8613 17.4456 18.584C17.5736 18.296 17.6376 17.992 17.6376 17.672V17.576C17.6376 16.904 17.4242 16.3813 16.9976 16.008C16.5709 15.624 16.0376 15.432 15.3976 15.432H13.8936Z" fill="#858584"/>
</svg>
