<svg width="30" height="30" viewBox="0 0 30 30" fill="none" xmlns="http://www.w3.org/2000/svg">
<rect width="30" height="30" rx="15" fill="#2B2B2B"/>
<path d="M18.8056 19.752V21H11.2216V19.08C11.2216 18.568 11.3069 18.1253 11.4776 17.752C11.6482 17.368 11.8882 17.0427 12.1976 16.776C12.5176 16.4987 12.9016 16.2693 13.3496 16.088C13.7976 15.9067 14.3042 15.752 14.8696 15.624C15.8189 15.4107 16.5016 15.1067 16.9176 14.712C17.3442 14.3173 17.5576 13.832 17.5576 13.256V13.16C17.5576 12.872 17.5096 12.5893 17.4136 12.312C17.3176 12.0347 17.1682 11.784 16.9656 11.56C16.7629 11.336 16.5016 11.16 16.1816 11.032C15.8722 10.8933 15.4989 10.824 15.0616 10.824C14.2402 10.824 13.6002 11.0747 13.1416 11.576C12.6936 12.0773 12.4696 12.744 12.4696 13.576V14.28H11.1256V13.48C11.1256 12.968 11.2109 12.4773 11.3816 12.008C11.5522 11.5387 11.8029 11.1227 12.1336 10.76C12.4642 10.3973 12.8749 10.1093 13.3656 9.896C13.8562 9.68267 14.4216 9.576 15.0616 9.576C15.7122 9.576 16.2776 9.67733 16.7576 9.88C17.2376 10.072 17.6376 10.3333 17.9576 10.664C18.2776 10.984 18.5122 11.352 18.6616 11.768C18.8216 12.1733 18.9016 12.5893 18.9016 13.016V13.304C18.9016 14.1573 18.6349 14.888 18.1016 15.496C17.5682 16.0933 16.7149 16.52 15.5416 16.776C14.5176 17 13.7656 17.2987 13.2856 17.672C12.8056 18.0347 12.5656 18.568 12.5656 19.272V19.752H18.8056Z" fill="#858584"/>
</svg>
